<?xml version="1.0" standalone="no"?>
<!DOCTYPE svg PUBLIC "-//W3C//DTD SVG 20010904//EN"
 "http://www.w3.org/TR/2001/REC-SVG-20010904/DTD/svg10.dtd">
<svg version="1.0" xmlns="http://www.w3.org/2000/svg"
 width="1024.000000pt" height="1024.000000pt" viewBox="0 0 1024.000000 1024.000000"
 preserveAspectRatio="xMidYMid meet">
<metadata>
Created by potrace 1.16, written by Peter Selinger 2001-2019
</metadata>
<g transform="translate(0.000000,1024.000000) scale(0.100000,-0.100000)"
fill="#000000" stroke="none">
<path d="M5241 7680 c-74 -281 -132 -483 -203 -700 -60 -183 -130 -377 -200
-552 -41 -105 -54 -127 -74 -132 -24 -6 -34 -39 -15 -51 10 -6 -27 -105 -39
-105 -23 0 -139 324 -187 522 -15 65 -31 118 -35 118 -19 0 -185 -316 -245
-467 -20 -51 -40 -93 -45 -93 -5 0 -23 23 -40 50 -27 43 -35 50 -63 50 -17 0
-40 -6 -51 -14 -22 -17 -23 -16 64 -116 49 -56 62 -76 57 -93 -14 -47 -93
-196 -152 -286 -35 -52 -63 -98 -63 -103 0 -11 35 -28 58 -28 13 0 27 18 47
60 16 33 29 59 31 57 1 -1 -5 -38 -12 -82 -8 -44 -17 -163 -20 -265 l-5 -185
-37 -11 c-90 -27 -146 -76 -189 -169 -24 -52 -28 -72 -28 -155 0 -87 3 -100
30 -149 18 -32 46 -64 69 -80 36 -23 49 -26 135 -26 l95 0 8 -43 c9 -53 14
-62 38 -62 25 0 30 18 24 102 l-5 73 19 -40 c38 -79 114 -200 177 -280 161
-207 375 -354 605 -417 117 -32 355 -32 472 0 325 89 603 330 765 662 106 218
153 418 160 681 6 196 -5 319 -44 504 -22 106 -106 386 -133 440 -5 11 -30 67
-55 125 -173 397 -484 856 -828 1225 l-75 80 -11 -45z m188 -340 c246 -296
451 -609 593 -906 32 -67 58 -126 58 -131 0 -5 -13 -17 -30 -26 -72 -43 -114
-178 -108 -352 4 -146 27 -197 108 -237 78 -41 180 -38 180 3 0 15 -7 19 -38
19 -21 0 -58 10 -82 23 -53 27 -79 73 -89 156 l-7 58 75 7 c44 3 81 12 91 21
15 14 18 8 38 -72 50 -207 56 -261 57 -478 0 -115 -4 -232 -8 -259 l-9 -49
-24 41 c-51 85 -165 105 -263 44 -94 -57 -145 -225 -108 -353 30 -101 126
-179 207 -167 38 6 37 2 -31 -98 -169 -250 -429 -422 -704 -464 -197 -31 -470
48 -657 190 -231 176 -411 466 -483 784 -16 67 -15 69 4 90 27 28 27 30 -9 66
-30 30 -30 32 -30 143 0 125 12 252 37 375 l16 82 101 0 101 0 70 -85 c72 -88
97 -102 129 -69 25 24 19 39 -24 69 -66 46 -300 310 -300 338 0 33 147 377
161 377 4 0 11 -15 14 -32 16 -77 102 -294 172 -437 l76 -154 28 59 27 59 1
-90 c0 -49 -4 -110 -10 -135 -9 -38 -8 -46 7 -57 10 -7 31 -13 47 -13 l29 0
-7 114 c-8 118 -2 176 18 176 16 0 205 -130 342 -236 60 -46 112 -84 116 -84
14 0 69 52 69 65 0 7 -15 16 -32 19 -34 6 -116 59 -321 204 l-117 84 52 26
c60 31 90 74 92 132 1 49 -26 87 -86 120 l-45 25 54 140 c74 192 221 634 279
842 56 201 37 197 173 33z m-475 -1096 c19 -18 21 -82 4 -119 -10 -22 -90 -75
-113 -75 -15 0 -2 88 22 145 22 53 31 65 49 65 12 0 30 -7 38 -16z m1174 -56
c32 -86 54 -159 51 -163 -2 -1 -39 -5 -81 -7 l-78 -3 0 35 c0 72 50 190 80
190 5 0 17 -24 28 -52z m-2049 -1085 c12 -56 30 -129 40 -162 10 -34 15 -64
10 -67 -5 -3 -9 -21 -9 -40 0 -72 -90 -122 -167 -93 -61 24 -78 57 -78 157 0
74 4 96 28 147 30 64 73 116 122 146 16 10 30 17 31 16 2 -1 12 -48 23 -104z
m2076 34 c60 -60 71 -162 29 -276 -32 -86 -52 -106 -109 -106 -88 0 -149 86
-149 209 0 127 58 206 153 206 35 0 49 -6 76 -33z"/>
<path d="M5637 6296 c-49 -18 -68 -36 -100 -94 -34 -63 -50 -162 -45 -285 5
-128 28 -185 93 -222 71 -42 201 -47 193 -7 -2 12 -18 19 -57 24 -30 3 -66 15
-80 25 -35 25 -70 98 -77 160 l-6 50 78 6 c59 5 84 12 98 27 33 32 9 43 -88
39 l-85 -4 5 40 c20 140 53 186 139 193 45 4 55 8 55 23 0 37 -56 49 -123 25z"/>
<path d="M4383 5254 c-18 -14 -33 -30 -33 -35 0 -5 19 -21 41 -35 l42 -26 -7
-200 c-6 -163 -11 -209 -27 -249 -22 -58 -13 -68 46 -49 l35 12 1 186 c0 103
4 195 7 205 6 14 19 5 72 -55 129 -143 190 -223 207 -268 24 -65 29 -68 63
-35 l30 29 1 155 c0 86 6 193 12 238 7 44 11 86 9 92 -5 15 -67 14 -80 -1 -6
-8 -7 -31 -2 -63 10 -60 11 -213 2 -274 l-7 -45 -66 75 c-36 41 -119 140 -183
222 -65 81 -121 147 -125 147 -3 0 -21 -12 -38 -26z"/>
<path d="M5116 5239 c-24 -19 -27 -27 -21 -53 4 -17 10 -141 14 -276 3 -135
10 -251 14 -257 12 -19 35 -16 41 5 4 14 21 479 21 572 0 33 -33 38 -69 9z"/>
<path d="M5324 5226 c-3 -8 -4 -23 -2 -33 3 -15 15 -18 80 -21 l76 -3 7 -82
c4 -45 2 -138 -3 -207 -11 -140 -5 -170 43 -208 47 -37 135 -25 135 18 0 15
-7 20 -25 20 -42 0 -74 21 -86 58 -11 35 -7 267 7 370 l6 42 69 0 c56 0 73 4
89 20 11 11 20 25 20 30 0 6 -75 10 -205 10 -170 0 -207 -3 -211 -14z"/>
<path d="M6438 6304 c-51 -16 -63 -39 -32 -65 13 -11 15 -44 11 -253 -2 -133
-8 -253 -12 -268 -6 -24 -4 -27 30 -37 20 -5 42 -8 48 -5 9 3 11 44 8 151 -3
139 -2 146 15 139 43 -16 128 -74 279 -192 92 -71 169 -124 182 -124 20 0 73
51 73 70 0 10 -25 20 -50 20 -10 0 -108 63 -219 141 l-201 140 51 27 c155 81
96 274 -83 271 -29 0 -74 -7 -100 -15z m160 -60 c30 -21 31 -90 1 -128 -22
-27 -97 -71 -106 -62 -12 11 9 177 24 191 19 19 53 19 81 -1z"/>
<path d="M3670 6273 c-27 -10 -65 -37 -96 -68 -66 -66 -94 -146 -94 -269 0
-193 118 -290 297 -245 53 14 123 75 123 107 0 32 -25 28 -85 -14 -97 -66
-167 -52 -227 47 -74 119 -22 326 95 380 56 25 80 24 116 -7 l31 -25 25 25
c31 31 32 50 3 70 -29 21 -128 20 -188 -1z"/>
<path d="M6525 5283 c-67 -20 -73 -27 -52 -62 15 -25 17 -59 17 -246 0 -137
-4 -232 -12 -257 -14 -48 -4 -60 49 -62 l37 -1 -3 149 -3 148 51 -27 c28 -16
106 -70 174 -122 245 -187 245 -187 274 -172 30 16 57 54 49 67 -3 5 -19 12
-36 15 -31 7 -133 72 -320 206 l-108 77 47 25 c105 55 123 175 37 239 -54 40
-120 48 -201 23z m165 -116 c0 -57 -18 -87 -65 -114 -65 -37 -68 -34 -60 60 4
45 11 90 16 99 12 22 48 27 82 11 23 -12 27 -19 27 -56z"/>
<path d="M3511 5244 c-31 -26 -40 -61 -21 -80 5 -5 12 -115 15 -244 4 -129 8
-245 11 -257 5 -25 37 -32 51 -10 13 19 21 601 9 609 -19 13 -33 9 -65 -18z"/>
</g>
</svg>
